<?xml version="1.0" encoding="UTF-8"?>
<svg width="700pt" height="700pt" version="1.1" viewBox="0 0 700 700" xmlns="http://www.w3.org/2000/svg" xmlns:xlink="http://www.w3.org/1999/xlink">
 <defs>
  <symbol id="x" overflow="visible">
   <path d="m18.766-1.125c-0.96875 0.5-1.9805 0.875-3.0312 1.125-1.043 0.25781-2.1367 0.39062-3.2812 0.39062-3.3984 0-6.0898-0.94531-8.0781-2.8438-1.9922-1.9062-2.9844-4.4844-2.9844-7.7344 0-3.2578 0.99219-5.8359 2.9844-7.7344 1.9883-1.9062 4.6797-2.8594 8.0781-2.8594 1.1445 0 2.2383 0.13281 3.2812 0.39062 1.0508 0.25 2.0625 0.625 3.0312 1.125v4.2188c-0.98047-0.65625-1.9453-1.1406-2.8906-1.4531-0.94922-0.3125-1.9492-0.46875-3-0.46875-1.875 0-3.3516 0.60547-4.4219 1.8125-1.0742 1.1992-1.6094 2.8555-1.6094 4.9688 0 2.1055 0.53516 3.7617 1.6094 4.9688 1.0703 1.1992 2.5469 1.7969 4.4219 1.7969 1.0508 0 2.0508-0.14844 3-0.45312 0.94531-0.3125 1.9102-0.80078 2.8906-1.4688z"/>
  </symbol>
  <symbol id="c" overflow="visible">
   <path d="m13.734-11.141c-0.4375-0.19531-0.87109-0.34375-1.2969-0.4375-0.41797-0.10156-0.83984-0.15625-1.2656-0.15625-1.2617 0-2.2305 0.40625-2.9062 1.2188-0.67969 0.80469-1.0156 1.9531-1.0156 3.4531v7.0625h-4.8906v-15.312h4.8906v2.5156c0.625-1 1.3438-1.7266 2.1562-2.1875 0.82031-0.46875 1.8008-0.70312 2.9375-0.70312 0.16406 0 0.34375 0.011719 0.53125 0.03125 0.19531 0.011719 0.47656 0.039062 0.84375 0.078125z"/>
  </symbol>
  <symbol id="a" overflow="visible">
   <path d="m17.641-7.7031v1.4062h-11.453c0.125 1.1484 0.53906 2.0078 1.25 2.5781 0.70703 0.57422 1.7031 0.85938 2.9844 0.85938 1.0312 0 2.082-0.14844 3.1562-0.45312 1.082-0.3125 2.1914-0.77344 3.3281-1.3906v3.7656c-1.1562 0.4375-2.3125 0.76562-3.4688 0.98438-1.1562 0.22656-2.3125 0.34375-3.4688 0.34375-2.7734 0-4.9297-0.70312-6.4688-2.1094-1.5312-1.4062-2.2969-3.3789-2.2969-5.9219 0-2.5 0.75391-4.4609 2.2656-5.8906 1.5078-1.4375 3.582-2.1562 6.2188-2.1562 2.4062 0 4.332 0.73047 5.7812 2.1875 1.4453 1.4492 2.1719 3.3828 2.1719 5.7969zm-5.0312-1.625c0-0.92578-0.27344-1.6719-0.8125-2.2344-0.54297-0.57031-1.25-0.85938-2.125-0.85938-0.94922 0-1.7188 0.26562-2.3125 0.79688s-0.96484 1.2969-1.1094 2.2969z"/>
  </symbol>
  <symbol id="k" overflow="visible">
   <path d="m9.2188-6.8906c-1.0234 0-1.793 0.17188-2.3125 0.51562-0.51172 0.34375-0.76562 0.85547-0.76562 1.5312 0 0.625 0.20703 1.1172 0.625 1.4688 0.41406 0.34375 0.98828 0.51562 1.7188 0.51562 0.92578 0 1.7031-0.32812 2.3281-0.98438 0.63281-0.66406 0.95312-1.4922 0.95312-2.4844v-0.5625zm7.4688-1.8438v8.7344h-4.9219v-2.2656c-0.65625 0.92969-1.3984 1.6055-2.2188 2.0312-0.82422 0.41406-1.8242 0.625-3 0.625-1.5859 0-2.8711-0.45703-3.8594-1.375-0.99219-0.92578-1.4844-2.1289-1.4844-3.6094 0-1.7891 0.61328-3.1016 1.8438-3.9375 1.2383-0.84375 3.1797-1.2656 5.8281-1.2656h2.8906v-0.39062c0-0.76953-0.30859-1.332-0.92188-1.6875-0.61719-0.36328-1.5703-0.54688-2.8594-0.54688-1.0547 0-2.0312 0.10547-2.9375 0.3125-0.89844 0.21094-1.7305 0.52344-2.5 0.9375v-3.7344c1.0391-0.25 2.0859-0.44141 3.1406-0.57812 1.0625-0.13281 2.125-0.20312 3.1875-0.20312 2.7578 0 4.75 0.54688 5.9688 1.6406 1.2266 1.0859 1.8438 2.8555 1.8438 5.3125z"/>
  </symbol>
  <symbol id="b" overflow="visible">
   <path d="m7.7031-19.656v4.3438h5.0469v3.5h-5.0469v6.5c0 0.71094 0.14062 1.1875 0.42188 1.4375s0.83594 0.375 1.6719 0.375h2.5156v3.5h-4.1875c-1.9375 0-3.3125-0.39844-4.125-1.2031-0.80469-0.8125-1.2031-2.1797-1.2031-4.1094v-6.5h-2.4219v-3.5h2.4219v-4.3438z"/>
  </symbol>
  <symbol id="j" overflow="visible">
   <path d="m12.766-13.078v-8.2031h4.9219v21.281h-4.9219v-2.2188c-0.66797 0.90625-1.4062 1.5703-2.2188 1.9844s-1.7578 0.625-2.8281 0.625c-1.8867 0-3.4336-0.75-4.6406-2.25-1.2109-1.5-1.8125-3.4258-1.8125-5.7812 0-2.3633 0.60156-4.2969 1.8125-5.7969 1.207-1.5 2.7539-2.25 4.6406-2.25 1.0625 0 2 0.21484 2.8125 0.64062 0.82031 0.42969 1.5664 1.0859 2.2344 1.9688zm-3.2188 9.9219c1.0391 0 1.8359-0.37891 2.3906-1.1406 0.55078-0.76953 0.82812-1.8828 0.82812-3.3438 0-1.457-0.27734-2.5664-0.82812-3.3281-0.55469-0.76953-1.3516-1.1562-2.3906-1.1562-1.043 0-1.8398 0.38672-2.3906 1.1562-0.55469 0.76172-0.82812 1.8711-0.82812 3.3281 0 1.4609 0.27344 2.5742 0.82812 3.3438 0.55078 0.76172 1.3477 1.1406 2.3906 1.1406z"/>
  </symbol>
  <symbol id="i" overflow="visible">
   <path d="m10.5-3.1562c1.0508 0 1.8516-0.37891 2.4062-1.1406 0.55078-0.76953 0.82812-1.8828 0.82812-3.3438 0-1.457-0.27734-2.5664-0.82812-3.3281-0.55469-0.76953-1.3555-1.1562-2.4062-1.1562-1.0547 0-1.8594 0.38672-2.4219 1.1562-0.55469 0.77344-0.82812 1.8828-0.82812 3.3281 0 1.4492 0.27344 2.5586 0.82812 3.3281 0.5625 0.77344 1.3672 1.1562 2.4219 1.1562zm-3.25-9.9219c0.67578-0.88281 1.4219-1.5391 2.2344-1.9688 0.82031-0.42578 1.7656-0.64062 2.8281-0.64062 1.8945 0 3.4453 0.75 4.6562 2.25 1.207 1.5 1.8125 3.4336 1.8125 5.7969 0 2.3555-0.60547 4.2812-1.8125 5.7812-1.2109 1.5-2.7617 2.25-4.6562 2.25-1.0625 0-2.0078-0.21094-2.8281-0.625-0.8125-0.42578-1.5586-1.0859-2.2344-1.9844v2.2188h-4.8906v-21.281h4.8906z"/>
  </symbol>
  <symbol id="h" overflow="visible">
   <path d="m0.34375-15.312h4.8906l4.125 10.391 3.5-10.391h4.8906l-6.4375 16.766c-0.64844 1.6953-1.4023 2.8828-2.2656 3.5625-0.86719 0.6875-2 1.0312-3.4062 1.0312h-2.8438v-3.2188h1.5312c0.83203 0 1.4375-0.13672 1.8125-0.40625 0.38281-0.26172 0.67969-0.73047 0.89062-1.4062l0.14062-0.42188z"/>
  </symbol>
  <symbol id="e" overflow="visible">
   <path d="m2.5781-20.406h5.25v20.406h-5.25z"/>
  </symbol>
  <symbol id="g" overflow="visible">
   <path d="m2.5781-20.406h5.875l7.4219 14v-14h4.9844v20.406h-5.875l-7.4219-14v14h-4.9844z"/>
  </symbol>
  <symbol id="w" overflow="visible">
   <path d="m7.8281-16.438v12.453h1.8906c2.1562 0 3.8008-0.53125 4.9375-1.5938 1.1328-1.0625 1.7031-2.6133 1.7031-4.6562 0-2.0195-0.57031-3.5547-1.7031-4.6094-1.125-1.0625-2.7734-1.5938-4.9375-1.5938zm-5.25-3.9688h5.5469c3.0938 0 5.3984 0.21875 6.9219 0.65625 1.5195 0.4375 2.8203 1.1875 3.9062 2.25 0.95703 0.91797 1.6641 1.9805 2.125 3.1875 0.46875 1.1992 0.70312 2.5586 0.70312 4.0781 0 1.543-0.23438 2.918-0.70312 4.125-0.46094 1.2109-1.168 2.2773-2.125 3.2031-1.0938 1.0547-2.4062 1.8047-3.9375 2.25-1.5312 0.4375-3.8281 0.65625-6.8906 0.65625h-5.5469z"/>
  </symbol>
  <symbol id="v" overflow="visible">
   <path d="m10.047-11.359c1.1016 0 1.8945-0.20312 2.375-0.60938 0.47656-0.41406 0.71875-1.0938 0.71875-2.0312 0-0.92578-0.24219-1.5859-0.71875-1.9844-0.48047-0.40625-1.2734-0.60938-2.375-0.60938h-2.2188v5.2344zm-2.2188 3.6406v7.7188h-5.25v-20.406h8.0312c2.6875 0 4.6562 0.45312 5.9062 1.3594 1.2578 0.89844 1.8906 2.3203 1.8906 4.2656 0 1.3555-0.32812 2.4648-0.98438 3.3281-0.64844 0.86719-1.625 1.5-2.9375 1.9062 0.71875 0.16797 1.3594 0.54297 1.9219 1.125 0.57031 0.57422 1.1484 1.4492 1.7344 2.625l2.8594 5.7969h-5.6094l-2.4844-5.0781c-0.5-1.0195-1.0117-1.7109-1.5312-2.0781-0.51172-0.375-1.1953-0.5625-2.0469-0.5625z"/>
  </symbol>
  <symbol id="f" overflow="visible">
   <path d="m14.953-3.7188h-8.2188l-1.3125 3.7188h-5.2812l7.5625-20.406h6.2656l7.5625 20.406h-5.2812zm-6.9062-3.7812h5.5781l-2.7812-8.125z"/>
  </symbol>
  <symbol id="u" overflow="visible">
   <path d="m0.82812-20.406h5.0469l3.5312 14.828 3.5-14.828h5.0781l3.5 14.828 3.5156-14.828h5.0156l-4.8125 20.406h-6.0781l-3.7031-15.516-3.6562 15.516h-6.0781z"/>
  </symbol>
  <symbol id="t" overflow="visible">
   <path d="m0.14062-20.406h18.812v3.9688h-6.7656v16.438h-5.2656v-16.438h-6.7812z"/>
  </symbol>
  <symbol id="s" overflow="visible">
   <path d="m12.422-21.281v3.2188h-2.7031c-0.6875 0-1.1719 0.125-1.4531 0.375-0.27344 0.25-0.40625 0.6875-0.40625 1.3125v1.0625h4.1875v3.5h-4.1875v11.812h-4.8906v-11.812h-2.4375v-3.5h2.4375v-1.0625c0-1.6641 0.46094-2.8984 1.3906-3.7031 0.92578-0.80078 2.3672-1.2031 4.3281-1.2031z"/>
  </symbol>
  <symbol id="d" overflow="visible">
   <path d="m9.6406-12.188c-1.0859 0-1.9141 0.39062-2.4844 1.1719-0.57422 0.78125-0.85938 1.9062-0.85938 3.375s0.28516 2.5938 0.85938 3.375c0.57031 0.77344 1.3984 1.1562 2.4844 1.1562 1.0625 0 1.875-0.38281 2.4375-1.1562 0.57031-0.78125 0.85938-1.9062 0.85938-3.375s-0.28906-2.5938-0.85938-3.375c-0.5625-0.78125-1.375-1.1719-2.4375-1.1719zm0-3.5c2.6328 0 4.6914 0.71484 6.1719 2.1406 1.4766 1.418 2.2188 3.3867 2.2188 5.9062 0 2.5117-0.74219 4.4805-2.2188 5.9062-1.4805 1.418-3.5391 2.125-6.1719 2.125-2.6484 0-4.7148-0.70703-6.2031-2.125-1.4922-1.4258-2.2344-3.3945-2.2344-5.9062 0-2.5195 0.74219-4.4883 2.2344-5.9062 1.4883-1.4258 3.5547-2.1406 6.2031-2.1406z"/>
  </symbol>
  <symbol id="r" overflow="visible">
   <path d="m16.547-12.766c0.61328-0.94531 1.3477-1.6719 2.2031-2.1719 0.85156-0.5 1.7891-0.75 2.8125-0.75 1.7578 0 3.0977 0.54688 4.0156 1.6406 0.92578 1.0859 1.3906 2.6562 1.3906 4.7188v9.3281h-4.9219v-7.9844-0.35938c0.007813-0.13281 0.015625-0.32031 0.015625-0.5625 0-1.082-0.16406-1.8633-0.48438-2.3438-0.3125-0.48828-0.82422-0.73438-1.5312-0.73438-0.92969 0-1.6484 0.38672-2.1562 1.1562-0.51172 0.76172-0.77344 1.8672-0.78125 3.3125v7.5156h-4.9219v-7.9844c0-1.6953-0.14844-2.7852-0.4375-3.2656-0.29297-0.48828-0.8125-0.73438-1.5625-0.73438-0.9375 0-1.6641 0.38672-2.1719 1.1562-0.51172 0.76172-0.76562 1.8594-0.76562 3.2969v7.5312h-4.9219v-15.312h4.9219v2.2344c0.60156-0.86328 1.2891-1.5156 2.0625-1.9531 0.78125-0.4375 1.6406-0.65625 2.5781-0.65625 1.0625 0 2 0.25781 2.8125 0.76562 0.8125 0.51172 1.4258 1.2305 1.8438 2.1562z"/>
  </symbol>
  <symbol id="q" overflow="visible">
   <path d="m17.75-9.3281v9.3281h-4.9219v-7.1094c0-1.3438-0.03125-2.2656-0.09375-2.7656s-0.16797-0.86719-0.3125-1.1094c-0.1875-0.3125-0.44922-0.55469-0.78125-0.73438-0.32422-0.17578-0.69531-0.26562-1.1094-0.26562-1.0234 0-1.8242 0.39844-2.4062 1.1875-0.58594 0.78125-0.875 1.8711-0.875 3.2656v7.5312h-4.8906v-21.281h4.8906v8.2031c0.73828-0.88281 1.5195-1.5391 2.3438-1.9688 0.83203-0.42578 1.75-0.64062 2.75-0.64062 1.7695 0 3.1133 0.54688 4.0312 1.6406 0.91406 1.0859 1.375 2.6562 1.375 4.7188z"/>
  </symbol>
  <symbol id="p" overflow="visible">
   <path d="m2.1875-5.9688v-9.3438h4.9219v1.5312c0 0.83594-0.007813 1.875-0.015625 3.125-0.011719 1.25-0.015625 2.0859-0.015625 2.5 0 1.2422 0.03125 2.1328 0.09375 2.6719 0.070313 0.54297 0.17969 0.93359 0.32812 1.1719 0.20703 0.32422 0.47266 0.57422 0.79688 0.75 0.32031 0.16797 0.69141 0.25 1.1094 0.25 1.0195 0 1.8203-0.39062 2.4062-1.1719 0.58203-0.78125 0.875-1.8672 0.875-3.2656v-7.5625h4.8906v15.312h-4.8906v-2.2188c-0.74219 0.89844-1.5234 1.5586-2.3438 1.9844-0.82422 0.41406-1.7344 0.625-2.7344 0.625-1.7617 0-3.1055-0.53906-4.0312-1.625-0.92969-1.082-1.3906-2.6602-1.3906-4.7344z"/>
  </symbol>
  <symbol id="o" overflow="visible">
   <path d="m17.75-9.3281v9.3281h-4.9219v-7.1406c0-1.3203-0.03125-2.2344-0.09375-2.7344s-0.16797-0.86719-0.3125-1.1094c-0.1875-0.3125-0.44922-0.55469-0.78125-0.73438-0.32422-0.17578-0.69531-0.26562-1.1094-0.26562-1.0234 0-1.8242 0.39844-2.4062 1.1875-0.58594 0.78125-0.875 1.8711-0.875 3.2656v7.5312h-4.8906v-15.312h4.8906v2.2344c0.73828-0.88281 1.5195-1.5391 2.3438-1.9688 0.83203-0.42578 1.75-0.64062 2.75-0.64062 1.7695 0 3.1133 0.54688 4.0312 1.6406 0.91406 1.0859 1.375 2.6562 1.375 4.7188z"/>
  </symbol>
  <symbol id="n" overflow="visible">
   <path d="m2.5781-20.406h8.7344c2.5938 0 4.582 0.57812 5.9688 1.7344 1.3945 1.1484 2.0938 2.7891 2.0938 4.9219 0 2.1367-0.69922 3.7812-2.0938 4.9375-1.3867 1.1562-3.375 1.7344-5.9688 1.7344h-3.4844v7.0781h-5.25zm5.25 3.8125v5.7031h2.9219c1.0195 0 1.8047-0.25 2.3594-0.75 0.5625-0.5 0.84375-1.2031 0.84375-2.1094 0-0.91406-0.28125-1.6172-0.84375-2.1094-0.55469-0.48828-1.3398-0.73438-2.3594-0.73438z"/>
  </symbol>
  <symbol id="m" overflow="visible">
   <path d="m2.3594-15.312h4.8906v15.031c0 2.0508-0.49609 3.6172-1.4844 4.7031-0.98047 1.082-2.4062 1.625-4.2812 1.625h-2.4219v-3.2188h0.85938c0.92578 0 1.5625-0.21094 1.9062-0.625 0.35156-0.41797 0.53125-1.2461 0.53125-2.4844zm0-5.9688h4.8906v4h-4.8906z"/>
  </symbol>
  <symbol id="l" overflow="visible">
   <path d="m14.719-14.828v3.9844c-0.65625-0.45703-1.3242-0.79688-2-1.0156-0.66797-0.21875-1.3594-0.32812-2.0781-0.32812-1.3672 0-2.4336 0.40234-3.2031 1.2031-0.76172 0.79297-1.1406 1.9062-1.1406 3.3438 0 1.4297 0.37891 2.543 1.1406 3.3438 0.76953 0.79297 1.8359 1.1875 3.2031 1.1875 0.75781 0 1.4844-0.10938 2.1719-0.32812 0.6875-0.22656 1.3203-0.56641 1.9062-1.0156v4c-0.76172 0.28125-1.5391 0.48828-2.3281 0.625-0.78125 0.14453-1.5742 0.21875-2.375 0.21875-2.7617 0-4.9219-0.70703-6.4844-2.125-1.5547-1.4141-2.3281-3.3828-2.3281-5.9062 0-2.5312 0.77344-4.5039 2.3281-5.9219 1.5625-1.4141 3.7227-2.125 6.4844-2.125 0.80078 0 1.5938 0.074219 2.375 0.21875 0.78125 0.13672 1.5547 0.35156 2.3281 0.64062z"/>
  </symbol>
 </defs>
 <g>
  <path d="m230.59 360.96-53.57-37.629 53.57-37.629c3.2188-2.2617 3.9961-6.7031 1.7344-9.9219-2.2617-3.2188-6.7031-3.9922-9.9219-1.7344l-61.867 43.457c-1.8984 1.332-3.0273 3.5078-3.0273 5.8281 0 2.3203 1.1289 4.4961 3.0273 5.8281l61.867 43.457c1.2461 0.875 2.6719 1.2969 4.0859 1.2969 2.2422 0 4.4492-1.0547 5.832-3.0273 2.2617-3.2227 1.4883-7.6641-1.7305-9.9258z"/>
  <path d="m309.61 275.78c-2.2617 3.2188-1.4844 7.6602 1.7344 9.9219l53.57 37.629-53.57 37.629c-3.2188 2.2617-3.9961 6.7031-1.7344 9.9219 1.3867 1.9727 3.5938 3.0273 5.832 3.0273 1.4141 0 2.8438-0.42188 4.0859-1.2969l61.867-43.457c1.8984-1.332 3.0273-3.5078 3.0273-5.8281s-1.1289-4.4961-3.0273-5.8281l-61.867-43.457c-3.2148-2.2578-7.6562-1.4805-9.918 1.7383z"/>
  <path d="m307.08 260.78c-3.4062-1.9688-7.7617-0.80078-9.7266 2.6055l-65.109 112.77c-1.9688 3.4062-0.80078 7.7617 2.6055 9.7266 1.1211 0.64844 2.3438 0.95703 3.5547 0.95703 2.4609 0 4.8555-1.2773 6.1758-3.5625l65.105-112.77c1.9648-3.4062 0.79688-7.7617-2.6055-9.7266z"/>
  <path d="m627.26 225.21c0.082031-0.16406 0.16406-0.32422 0.23438-0.49219 0.09375-0.24219 0.16406-0.49609 0.23438-0.75 0.050781-0.18359 0.11328-0.35938 0.14844-0.54688 0.007813-0.035156 0.019532-0.0625 0.027344-0.097656 1.3867-7.9219 2.0938-16.035 2.0938-24.109 0-8.0742-0.70703-16.188-2.0977-24.109-0.003906-0.035157-0.019532-0.0625-0.027344-0.09375-0.050781-0.26953-0.14062-0.52734-0.22266-0.78516-0.058594-0.19531-0.10547-0.39453-0.17969-0.57812-0.09375-0.23047-0.22266-0.44141-0.33984-0.66016-0.10156-0.19141-0.19141-0.39062-0.30859-0.57031-0.13281-0.19922-0.29297-0.375-0.44531-0.55859-0.13672-0.16797-0.26172-0.34766-0.41406-0.5-0.18359-0.18359-0.39062-0.33984-0.58984-0.50391-0.14844-0.12109-0.28516-0.25781-0.44531-0.36719-0.22266-0.15625-0.46875-0.27344-0.71094-0.40234-0.16016-0.085938-0.3125-0.1875-0.48047-0.26172-0.22656-0.097657-0.46875-0.16016-0.70703-0.23828-0.20703-0.066407-0.41016-0.14453-0.625-0.19531-0.20703-0.042969-0.42188-0.054687-0.63281-0.082031-0.26172-0.035156-0.51953-0.074219-0.78906-0.078125-0.035156 0-0.0625-0.011719-0.097656-0.011719h-15.84c-2.6875-10.227-6.7305-19.969-12.066-29.086l11.211-11.199c0.023438-0.023438 0.035156-0.050782 0.058594-0.074219 0.19922-0.20703 0.36719-0.43359 0.53906-0.65625 0.11719-0.15234 0.25-0.29688 0.35156-0.45703 0.13672-0.21094 0.23828-0.4375 0.34766-0.66016 0.097657-0.19531 0.21094-0.37891 0.28906-0.57813 0.082031-0.20703 0.12891-0.42578 0.19141-0.64062 0.066406-0.22656 0.14453-0.44531 0.1875-0.67578 0.042969-0.22656 0.046875-0.45312 0.066406-0.67969 0.019532-0.22266 0.054688-0.44531 0.054688-0.67188 0-0.23828-0.042969-0.47656-0.066406-0.71484-0.023438-0.21484-0.03125-0.43359-0.074219-0.64453-0.042969-0.21875-0.125-0.43359-0.19141-0.64844-0.070312-0.23047-0.125-0.46094-0.21875-0.68359-0.078124-0.1875-0.19141-0.36328-0.28906-0.54688-0.125-0.23828-0.23828-0.47656-0.39453-0.70312-0.019531-0.027344-0.03125-0.058594-0.050781-0.089844-9.3359-13.32-20.812-24.789-34.117-34.098-0.027344-0.019532-0.054688-0.027344-0.078125-0.042969-0.23438-0.16016-0.48047-0.27734-0.72656-0.40625-0.17578-0.09375-0.34375-0.19922-0.52734-0.27734-0.21875-0.089844-0.44531-0.14453-0.66797-0.21484-0.22266-0.070312-0.44141-0.15234-0.66797-0.19922-0.19141-0.039062-0.38672-0.042968-0.57812-0.066406-0.26172-0.03125-0.52344-0.074218-0.78516-0.074218-0.19141 0-0.37891 0.03125-0.56641 0.042968-0.26172 0.019532-0.52734 0.027344-0.78516 0.074219-0.19922 0.035156-0.38672 0.10938-0.58203 0.16016-0.24609 0.066407-0.49219 0.12109-0.73047 0.21484-0.18359 0.070313-0.35156 0.17578-0.52734 0.26172-0.23828 0.11719-0.48438 0.22656-0.71094 0.37109-0.15625 0.10156-0.29688 0.23047-0.44531 0.34766-0.22656 0.17188-0.45312 0.33984-0.66016 0.53906-0.023438 0.023438-0.050782 0.035156-0.070313 0.058594l-11.199 11.199c-9.1172-5.3359-18.859-9.375-29.086-12.066v-15.84c0-0.03125-0.007813-0.0625-0.007813-0.097657-0.003906-0.28125-0.046875-0.55078-0.082031-0.82422-0.027344-0.19531-0.035156-0.39844-0.074219-0.58594-0.054687-0.24219-0.14062-0.47266-0.21875-0.70703-0.070312-0.20703-0.12109-0.42188-0.20703-0.62109-0.089844-0.20703-0.21094-0.39062-0.32031-0.58594-0.11328-0.20312-0.21484-0.41797-0.34375-0.60938-0.12891-0.1875-0.28906-0.35547-0.4375-0.52734-0.14453-0.17188-0.27734-0.35547-0.4375-0.51172-0.16797-0.16406-0.36328-0.30469-0.54687-0.45312-0.17188-0.13672-0.33203-0.28906-0.51563-0.41016-0.18359-0.12109-0.38281-0.21094-0.57812-0.3125-0.21875-0.11719-0.42578-0.24219-0.65625-0.33594-0.17969-0.074219-0.375-0.11328-0.5625-0.17578-0.26563-0.082031-0.52734-0.17578-0.80469-0.22656-0.03125-0.007813-0.058594-0.019532-0.089844-0.027344-15.844-2.7852-32.375-2.7852-48.223 0-0.03125 0.003906-0.058594 0.019531-0.089844 0.027344-0.27734 0.050781-0.53906 0.14453-0.80469 0.22656-0.1875 0.058594-0.38281 0.10156-0.5625 0.17578-0.23047 0.09375-0.44141 0.22266-0.65625 0.33984-0.19141 0.10547-0.39453 0.19141-0.57422 0.3125-0.1875 0.125-0.34766 0.27344-0.52344 0.41406-0.18359 0.14844-0.375 0.28125-0.54297 0.44531-0.16406 0.16016-0.29688 0.34375-0.44531 0.51953-0.14453 0.17187-0.30078 0.33203-0.42969 0.51953-0.13672 0.19531-0.23828 0.41406-0.35547 0.625-0.10547 0.19141-0.22266 0.37109-0.30859 0.57031-0.089843 0.20312-0.14453 0.42578-0.21484 0.63672-0.074219 0.23047-0.16406 0.45312-0.21484 0.69141-0.042969 0.19531-0.050782 0.40234-0.078125 0.60156-0.035157 0.26953-0.078125 0.53516-0.082031 0.8125 0 0.03125-0.011719 0.0625-0.011719 0.097656v15.84c-10.227 2.6875-19.969 6.7305-29.086 12.066l-11.199-11.199c-0.023437-0.023437-0.050781-0.039062-0.074218-0.058594-0.19922-0.19531-0.42188-0.35547-0.64453-0.52344-0.15625-0.12109-0.30469-0.25781-0.46484-0.36328-0.21484-0.13672-0.44141-0.23828-0.66797-0.35156-0.19141-0.09375-0.375-0.20703-0.57031-0.28516-0.21875-0.085937-0.44531-0.13281-0.66797-0.19922-0.21484-0.0625-0.42578-0.13672-0.64453-0.17969-0.23828-0.042969-0.48438-0.050781-0.72656-0.070313-0.21094-0.015625-0.41797-0.050781-0.625-0.050781-0.25 0-0.49609 0.042969-0.74609 0.070313-0.20703 0.023437-0.41406 0.027343-0.61719 0.070312-0.21875 0.042969-0.43359 0.125-0.65234 0.19141-0.23047 0.070313-0.46094 0.125-0.68359 0.21875-0.17969 0.074219-0.34766 0.18359-0.52344 0.27344-0.24609 0.12891-0.49609 0.25-0.73047 0.41016-0.027344 0.015625-0.054688 0.027344-0.078125 0.042969-13.312 9.3125-24.789 20.789-34.102 34.102-0.019531 0.027344-0.027343 0.054688-0.042968 0.078125-0.16016 0.23438-0.28125 0.48828-0.41016 0.73828-0.089844 0.17187-0.19531 0.33594-0.26953 0.51172-0.097656 0.23047-0.15625 0.47266-0.22656 0.71094-0.0625 0.20703-0.14062 0.41016-0.18359 0.62109-0.042969 0.21875-0.050781 0.44531-0.074219 0.66797-0.023437 0.23047-0.066406 0.46094-0.066406 0.69531 0 0.23047 0.035156 0.46094 0.054687 0.69141 0.019532 0.22266 0.023438 0.44531 0.0625 0.66406 0.042969 0.23437 0.125 0.46094 0.19141 0.69141 0.0625 0.20703 0.10547 0.42188 0.18359 0.625 0.082032 0.20703 0.19531 0.39844 0.29688 0.59766 0.10937 0.21875 0.20703 0.4375 0.33984 0.64453 0.10547 0.16406 0.24219 0.3125 0.36328 0.46875 0.16797 0.21875 0.32813 0.44141 0.52344 0.64062 0.023438 0.023438 0.035156 0.050782 0.058594 0.070313l4.7773 4.7812-285.16 0.007812c-3.9336 0-7.1211 3.1875-7.1211 7.1211v288.83h-3.9922c-9.5312 0-17.285 7.7539-17.285 17.289v11.082c0 22.758 18.516 41.273 41.273 41.273h421.06c22.758 0 41.273-18.516 41.273-41.273v-11.082c0-9.5312-7.7539-17.289-17.289-17.289h-3.9766v-127.15l9.418 9.418c0.070312 0.070313 0.15625 0.12109 0.23047 0.1875 0.14844 0.13672 0.30469 0.25391 0.46484 0.37891 0.27344 0.21094 0.55078 0.40234 0.84375 0.56641 0.16797 0.09375 0.33203 0.18359 0.50391 0.26562 0.32812 0.15234 0.66406 0.27344 1.0117 0.37109 0.15234 0.042969 0.30078 0.10156 0.45703 0.13672 0.5 0.10938 1.0117 0.17969 1.5234 0.17969h0.011719c0.41406 0 0.82422-0.046875 1.2383-0.12109 0.11719-0.019531 0.23047-0.054687 0.34766-0.078125 0.29297-0.066406 0.57812-0.15234 0.86328-0.25391 0.13672-0.050782 0.26953-0.10156 0.40234-0.16016 0.27344-0.12109 0.53906-0.26172 0.80078-0.42188 0.11328-0.066406 0.22656-0.125 0.33594-0.19922 0.027344-0.019532 0.0625-0.03125 0.089844-0.054688 13.305-9.3086 24.781-20.781 34.117-34.098 0.019532-0.027344 0.027344-0.058594 0.046875-0.082031 0.16016-0.23438 0.27734-0.48047 0.40625-0.72656 0.089844-0.17578 0.19922-0.34375 0.27344-0.52344 0.09375-0.22656 0.15234-0.46484 0.22266-0.69922 0.0625-0.21094 0.14453-0.41797 0.1875-0.63672 0.042969-0.21484 0.050781-0.4375 0.074219-0.65625 0.023437-0.23438 0.066406-0.46875 0.066406-0.70703 0.003906-0.22656-0.035156-0.45312-0.054688-0.67969-0.019531-0.22656-0.023437-0.44922-0.066406-0.67187-0.042968-0.23438-0.125-0.46094-0.19141-0.6875-0.0625-0.21094-0.10547-0.42188-0.1875-0.625-0.082031-0.20703-0.19922-0.40234-0.30078-0.60547-0.10938-0.21484-0.20312-0.43359-0.33594-0.63672-0.10938-0.17188-0.25-0.32422-0.375-0.48828-0.16406-0.21484-0.32031-0.42969-0.51172-0.625-0.023437-0.023438-0.039062-0.054688-0.0625-0.078125l-11.211-11.199c5.3359-9.1172 9.375-18.859 12.066-29.086h15.84 0.011719c0.45703 0 0.90625-0.050782 1.3477-0.13672 0.14453-0.027344 0.28125-0.078125 0.42578-0.11719 0.28125-0.074219 0.5625-0.15234 0.83203-0.25781 0.16797-0.066407 0.32813-0.14844 0.48828-0.23047 0.23047-0.11328 0.45703-0.23047 0.67188-0.36328 0.15625-0.097657 0.30469-0.20703 0.45312-0.31641 0.20312-0.15234 0.39844-0.3125 0.58594-0.48437 0.13281-0.12109 0.25781-0.24609 0.38281-0.375 0.17578-0.19141 0.33984-0.39063 0.49609-0.60156 0.10547-0.14062 0.21094-0.28125 0.30469-0.42969 0.13672-0.21484 0.25391-0.44922 0.37109-0.6875zm-249.36 4.0039c2.6875 10.227 6.7305 19.969 12.066 29.086l-11.199 11.199c-0.023437 0.023438-0.039063 0.050781-0.0625 0.074219-0.19141 0.19531-0.34766 0.41406-0.51172 0.62891-0.125 0.16016-0.26562 0.31641-0.375 0.48438-0.12891 0.20312-0.22656 0.42188-0.33203 0.63281-0.10156 0.20313-0.22266 0.39844-0.30469 0.60547-0.078126 0.19922-0.12109 0.41016-0.18359 0.61328-0.066406 0.23438-0.15234 0.46094-0.19531 0.69922-0.039062 0.21484-0.042969 0.4375-0.0625 0.65625-0.019531 0.23438-0.058593 0.46484-0.054687 0.69531 0 0.23047 0.042968 0.45703 0.066406 0.6875 0.023438 0.22656 0.03125 0.45312 0.078125 0.67578 0.042969 0.20703 0.12109 0.41016 0.18359 0.61719 0.070312 0.24219 0.13281 0.48438 0.23047 0.71875 0.074218 0.17578 0.17969 0.33594 0.26562 0.50781 0.12891 0.25391 0.25391 0.50781 0.41797 0.74609 0.015625 0.023437 0.027344 0.054687 0.042969 0.078125 9.3125 13.312 20.789 24.789 34.102 34.102 0.027344 0.019532 0.058594 0.03125 0.089844 0.054688 0.10938 0.074218 0.22266 0.13281 0.33594 0.19922 0.26172 0.15625 0.52734 0.30078 0.80078 0.42188 0.13281 0.058593 0.26172 0.10937 0.39844 0.15625 0.28516 0.10547 0.57422 0.19141 0.86719 0.25781 0.11719 0.027344 0.23047 0.058594 0.34375 0.078125 0.41016 0.074219 0.82422 0.12109 1.2383 0.12109h0.011719c0.51172 0 1.0195-0.070313 1.5234-0.17969 0.15625-0.035156 0.30078-0.089843 0.45312-0.13281 0.34375-0.10156 0.68359-0.21875 1.0117-0.37109 0.17188-0.078125 0.33594-0.17188 0.50391-0.26562 0.29297-0.16797 0.57422-0.35547 0.84766-0.57031 0.15625-0.12109 0.3125-0.24219 0.46094-0.37891 0.074219-0.066406 0.15625-0.11719 0.23047-0.1875l11.199-11.199c9.1172 5.3359 18.859 9.375 29.086 12.066v15.84c0 0.035157 0.007813 0.0625 0.011719 0.097657 0.003906 0.27734 0.046875 0.54297 0.082031 0.8125 0.027344 0.20312 0.035156 0.40625 0.078125 0.60156 0.050781 0.23828 0.14062 0.46094 0.21484 0.69141 0.070313 0.21484 0.125 0.43359 0.21484 0.63672 0.085937 0.19922 0.20703 0.38281 0.3125 0.57422 0.11719 0.21094 0.21875 0.42578 0.35156 0.625 0.12891 0.18359 0.28516 0.34766 0.42969 0.51953 0.14844 0.17578 0.28125 0.35938 0.44531 0.51953 0.16797 0.16406 0.35938 0.30078 0.54297 0.44531 0.17188 0.14062 0.33594 0.29297 0.52344 0.41406 0.18359 0.12109 0.38281 0.21094 0.57812 0.3125 0.21484 0.11719 0.42578 0.24219 0.65625 0.33594 0.17969 0.074219 0.375 0.11719 0.5625 0.17578 0.26563 0.082031 0.52734 0.17188 0.80469 0.22656 0.03125 0.007812 0.058594 0.019531 0.089844 0.027344 7.9219 1.3945 16.035 2.0977 24.109 2.0977 3.1641 0 6.332-0.14062 9.4922-0.35547v92.273l-358.34-0.003906v-250.1h211.73c-0.92578 6.4961-1.4141 13.082-1.4141 19.652 0 8.0781 0.70703 16.191 2.0977 24.109 0.007813 0.035156 0.019531 0.0625 0.027344 0.097656 0.035156 0.1875 0.097656 0.35938 0.14453 0.54297 0.070312 0.25781 0.13672 0.51172 0.23438 0.75391 0.066406 0.16797 0.15234 0.32812 0.23047 0.48828 0.11719 0.23828 0.23438 0.47266 0.375 0.69531 0.09375 0.14844 0.19922 0.28516 0.30469 0.42578 0.15625 0.21094 0.32031 0.41406 0.5 0.60547 0.12109 0.12891 0.25 0.25391 0.37891 0.375 0.1875 0.17188 0.38281 0.33203 0.58984 0.48438 0.14844 0.10938 0.29297 0.21484 0.44922 0.3125 0.21875 0.13672 0.44531 0.25391 0.67578 0.36719 0.16016 0.078125 0.31641 0.16016 0.48438 0.22656 0.26953 0.10547 0.55078 0.18359 0.83594 0.25781 0.14453 0.039063 0.27734 0.085938 0.42578 0.11719 0.44141 0.085937 0.88672 0.13672 1.3477 0.13672h0.011719zm-272.38-81.266h280.28c-2.7266 5.5977-4.9961 11.395-6.793 17.367l-243.49 0.003906c-3.9336 0-7.1211 3.1875-7.1211 7.1211v257.22h-22.875zm453.84 299v11.082c0 14.902-12.125 27.027-27.031 27.027h-421.06c-14.902 0-27.027-12.125-27.027-27.027v-11.082c0-1.6797 1.3672-3.043 3.043-3.043h11.023c0.03125 0 0.054688 0.007812 0.085938 0.007812h36.266c0.28125 0.035157 0.5625 0.085938 0.85156 0.085938h372.57c0.28516 0 0.55469-0.050781 0.83203-0.085938h36.301c0.03125 0 0.058594-0.007812 0.085938-0.007812h11.012c1.6758-0.003906 3.043 1.3633 3.043 3.043zm-44.156-17.289v-93.957c0.125-0.023437 0.25-0.035156 0.375-0.058594 0.03125-0.003906 0.058594-0.019531 0.089844-0.027343 0.27734-0.050782 0.53906-0.14453 0.80469-0.22656 0.1875-0.058594 0.38281-0.10156 0.5625-0.17578 0.23047-0.09375 0.4375-0.21875 0.65625-0.33594 0.19531-0.10547 0.39844-0.19531 0.57813-0.31641 0.18359-0.12109 0.34375-0.27344 0.51562-0.41016 0.18359-0.14844 0.37891-0.28516 0.54688-0.45312 0.16016-0.15625 0.29297-0.33984 0.4375-0.51172 0.14844-0.17578 0.30859-0.33984 0.4375-0.52734 0.13281-0.19141 0.23047-0.40234 0.34375-0.60938 0.10937-0.19531 0.23047-0.38281 0.32031-0.58984 0.085938-0.19922 0.14062-0.41406 0.20703-0.62109 0.078125-0.23438 0.16797-0.46484 0.21875-0.70703 0.042969-0.19141 0.050781-0.39062 0.074219-0.58594 0.035156-0.27344 0.078125-0.54688 0.082031-0.82422 0-0.03125 0.007813-0.0625 0.007813-0.097656v-15.84c5.7031-1.5 11.25-3.4375 16.625-5.7695v122.64zm52.293-132.14-10.82-10.82c-0.007813-0.007813-0.011719-0.011719-0.019532-0.019531l-0.007812-0.007813c-0.042969-0.042969-0.09375-0.070313-0.13672-0.10938-0.30078-0.28906-0.61719-0.55469-0.96094-0.78125-0.16406-0.10938-0.33984-0.17969-0.50781-0.27344-0.23438-0.12891-0.46484-0.26953-0.71094-0.37109-0.21484-0.089844-0.44141-0.14062-0.66406-0.20703-0.21484-0.066407-0.42578-0.14844-0.64844-0.19141-0.21875-0.042969-0.44141-0.050781-0.66016-0.074219-0.23438-0.023437-0.46875-0.066406-0.70312-0.066406-0.21094 0-0.42188 0.035156-0.63281 0.050782-0.24609 0.019531-0.49219 0.023437-0.73438 0.070312-0.24609 0.046875-0.48438 0.13281-0.73047 0.20703-0.19922 0.058594-0.40234 0.097657-0.59375 0.17578-0.36719 0.14844-0.71875 0.33984-1.0625 0.55078-0.0625 0.039062-0.12891 0.058594-0.1875 0.097656-0.003906 0.003906-0.011719 0.007812-0.015625 0.007812s-0.007813 0.003907-0.007813 0.003907c-10.629 6.9453-22.332 11.801-34.777 14.43h-0.003907c-0.011718 0.003906-0.019531 0.003906-0.03125 0.007813-0.097656 0.019531-0.18359 0.066406-0.28125 0.089843-0.36328 0.09375-0.71875 0.19141-1.0586 0.33594-0.19531 0.082031-0.36719 0.19922-0.55469 0.30078-0.21875 0.11719-0.44922 0.22266-0.65234 0.36328-0.20313 0.13672-0.375 0.30469-0.55859 0.46094-0.16406 0.14062-0.33984 0.26562-0.49219 0.41797-0.16016 0.16406-0.29297 0.35156-0.4375 0.53125-0.14453 0.17969-0.30078 0.34375-0.42969 0.53516-0.12109 0.17969-0.20703 0.37891-0.3125 0.57422-0.11328 0.21094-0.24219 0.41406-0.33203 0.63672-0.097657 0.23438-0.15625 0.48438-0.22656 0.73047-0.058594 0.19531-0.13281 0.38281-0.17578 0.58594-0.074219 0.375-0.10156 0.76172-0.11719 1.1484-0.003906 0.085938-0.027344 0.16406-0.027344 0.25391v0.019532 0.027344 15.277c-10.426 1.3164-21.086 1.3164-31.512 0v-15.277-0.027344-0.015625c0-0.085938-0.023438-0.16797-0.027344-0.25391-0.011719-0.38672-0.039062-0.77344-0.11719-1.1484-0.039062-0.20312-0.11719-0.39453-0.17578-0.58984-0.070312-0.24609-0.12891-0.49219-0.22656-0.72656-0.09375-0.22656-0.22266-0.42969-0.33594-0.64062-0.10156-0.19141-0.19141-0.39062-0.30859-0.57031-0.12891-0.19141-0.28516-0.35938-0.42969-0.53516-0.14453-0.17969-0.27734-0.36719-0.4375-0.53125-0.15234-0.15234-0.32812-0.27734-0.49219-0.41797-0.18359-0.15625-0.35937-0.32422-0.55859-0.46094-0.20703-0.14062-0.43359-0.24609-0.65625-0.36719-0.18359-0.097656-0.35547-0.21484-0.55078-0.30078-0.33594-0.14453-0.69531-0.24609-1.0586-0.33594-0.097656-0.023437-0.18359-0.070312-0.28125-0.089843-0.011719-0.003907-0.019532-0.003907-0.03125-0.007813h-0.003906c-12.445-2.6289-24.145-7.4805-34.777-14.43-0.003906-0.003907-0.007813-0.003907-0.007813-0.003907-0.003906-0.003906-0.011719-0.007812-0.015625-0.007812-0.0625-0.039062-0.13281-0.0625-0.19531-0.10156-0.34375-0.21094-0.69141-0.40234-1.0586-0.54688-0.20703-0.082031-0.41797-0.125-0.62891-0.1875-0.23047-0.066406-0.45703-0.15234-0.69531-0.19922-0.25391-0.046875-0.51172-0.054688-0.76953-0.074219-0.19922-0.015625-0.39844-0.050781-0.59766-0.050781-0.24609 0-0.48438 0.042968-0.72656 0.070312-0.21484 0.023438-0.42969 0.027344-0.64062 0.070313-0.22266 0.046875-0.4375 0.12891-0.65234 0.19531-0.22266 0.066407-0.44531 0.11719-0.66016 0.20703-0.24219 0.10156-0.46875 0.24219-0.69922 0.36719-0.17188 0.09375-0.35156 0.16797-0.51953 0.28125-0.33203 0.21875-0.63672 0.48438-0.92969 0.76172-0.050781 0.046875-0.11328 0.082031-0.16406 0.13281l-0.007812 0.007813c-0.003906 0.003906-0.011719 0.011718-0.015625 0.015625l-10.824 10.824c-8.3594-6.457-15.82-13.922-22.277-22.277l10.848-10.848c0.0625-0.0625 0.10547-0.13672 0.16406-0.20313 0.26172-0.28125 0.51562-0.57422 0.72656-0.89062 0.12109-0.18359 0.20703-0.38281 0.3125-0.57813 0.11328-0.21094 0.24609-0.41797 0.33594-0.64062 0.097656-0.23438 0.15625-0.48047 0.22656-0.72266 0.058593-0.19531 0.13281-0.38672 0.17578-0.58984 0.046875-0.23438 0.054687-0.47266 0.078125-0.71094 0.023437-0.21875 0.0625-0.43359 0.0625-0.65625 0-0.22656-0.035156-0.44922-0.054688-0.67578-0.019531-0.23047-0.023437-0.46094-0.066406-0.69141-0.050781-0.26562-0.14062-0.51953-0.22266-0.77734-0.054688-0.17969-0.089844-0.36719-0.16016-0.54297-0.16016-0.39844-0.36328-0.78516-0.59766-1.1562-0.019531-0.03125-0.03125-0.066406-0.050781-0.10156 0-0.003907-0.003906-0.003907-0.003906-0.007813-0.003906-0.007813-0.007813-0.015625-0.011719-0.019531-6.9453-10.633-11.797-22.332-14.426-34.773v-0.003906c-0.003906-0.011719-0.003906-0.019531-0.007813-0.03125-0.019531-0.097656-0.0625-0.18359-0.089843-0.27734-0.09375-0.36328-0.19141-0.72266-0.33984-1.0625-0.082032-0.19141-0.19531-0.35938-0.29297-0.53906-0.12109-0.22656-0.23047-0.46094-0.375-0.67188-0.13281-0.19531-0.29688-0.36328-0.44922-0.54297-0.14453-0.17188-0.27344-0.35156-0.43359-0.50781-0.16016-0.15625-0.33984-0.28125-0.51172-0.42188-0.18359-0.14844-0.35547-0.3125-0.55469-0.44141-0.17578-0.11328-0.36719-0.19922-0.55078-0.29688-0.21875-0.11719-0.42969-0.25-0.66016-0.34766-0.22656-0.09375-0.46875-0.14844-0.70703-0.21875-0.20313-0.058594-0.39844-0.14062-0.60938-0.17969-0.37109-0.074219-0.75391-0.10156-1.1406-0.11328-0.085938-0.003906-0.17188-0.027344-0.25781-0.027344h-0.019531-0.027344-15.277c-0.66016-5.2148-1.0039-10.492-1.0039-15.758 0-5.2617 0.34375-10.539 1.0039-15.758h15.316 0.015626c0.45312 0 0.89844-0.054688 1.3359-0.13672 0.14062-0.027344 0.26953-0.074219 0.40625-0.10547 0.28516-0.074219 0.56641-0.15234 0.83984-0.26172 0.16016-0.0625 0.31641-0.14062 0.47266-0.21484 0.23438-0.11328 0.46484-0.23438 0.6875-0.37109 0.14844-0.09375 0.29297-0.1875 0.43359-0.29297 0.21484-0.15625 0.41797-0.32812 0.61328-0.50781 0.12109-0.10937 0.24219-0.21875 0.35547-0.33594 0.19531-0.20703 0.37109-0.42969 0.54297-0.66016 0.089843-0.11719 0.18359-0.23047 0.26562-0.35156 0.17188-0.26172 0.31641-0.54688 0.45313-0.83203 0.054687-0.11328 0.12109-0.21484 0.16797-0.32812 0.16406-0.39844 0.30078-0.81641 0.39062-1.2539 0.003907-0.011719 0.003907-0.019532 0.007813-0.03125v-0.003906c2.6289-12.441 7.4805-24.141 14.426-34.773 0.003906-0.003906 0.007813-0.011719 0.007813-0.015625 0.003906-0.003906 0.003906-0.007813 0.007812-0.011719 0.03125-0.046875 0.046875-0.097656 0.078125-0.14844 0.22266-0.35547 0.42188-0.72266 0.57422-1.1055 0.074218-0.18359 0.10938-0.375 0.16797-0.56641 0.078126-0.25391 0.16797-0.5 0.21484-0.75781 0.042969-0.23438 0.046875-0.46875 0.066406-0.69922 0.019532-0.22266 0.054688-0.44141 0.054688-0.66406s-0.039062-0.44141-0.0625-0.66016c-0.023438-0.23438-0.03125-0.47266-0.078125-0.70312-0.042969-0.20703-0.11719-0.39844-0.17969-0.60156-0.070313-0.23828-0.125-0.48047-0.22266-0.71094-0.097656-0.23047-0.23047-0.44531-0.35156-0.66797-0.10156-0.18359-0.17969-0.375-0.29688-0.55078-0.22656-0.33984-0.49609-0.65625-0.78516-0.96094-0.039063-0.042969-0.066407-0.089843-0.10938-0.13281l-0.007812-0.007813-10.84-10.84c6.4609-8.3555 13.922-15.82 22.277-22.277l10.848 10.848c0.027344 0.027344 0.058594 0.046875 0.089844 0.070313 0.30469 0.29687 0.62891 0.5625 0.97266 0.79687 0.0625 0.042969 0.125 0.074219 0.1875 0.11328 0.3125 0.19531 0.63672 0.36719 0.97266 0.51172 0.066407 0.027344 0.12891 0.0625 0.19922 0.089844 0.36719 0.14453 0.74609 0.25391 1.1328 0.33594 0.09375 0.019531 0.18359 0.035156 0.27734 0.050781 0.39844 0.070313 0.80469 0.11719 1.2109 0.11719 0.41016 0 0.81641-0.046874 1.2227-0.11719 0.10938-0.019531 0.21875-0.046875 0.32812-0.070313 0.30078-0.066406 0.60156-0.15625 0.89453-0.26562 0.11328-0.042969 0.23047-0.082032 0.34375-0.12891 0.375-0.16016 0.74609-0.34766 1.0977-0.57812 0.003906-0.003906 0.007812-0.003906 0.011718-0.007812 0.007813-0.003906 0.011719-0.007813 0.019532-0.011719 10.633-6.9453 22.332-11.797 34.773-14.426h0.003907c0.011718-0.003906 0.019531-0.003906 0.03125-0.007813 0.097656-0.019531 0.1875-0.066406 0.28516-0.089843 0.35938-0.09375 0.71875-0.19141 1.0547-0.33594 0.19531-0.085938 0.37109-0.20312 0.55469-0.30078 0.21875-0.11719 0.44531-0.22266 0.65234-0.36328 0.20313-0.13672 0.375-0.30469 0.55859-0.46094 0.16406-0.14062 0.33984-0.26562 0.49219-0.41797 0.16016-0.16406 0.29297-0.35156 0.4375-0.53125 0.14453-0.17969 0.30078-0.34375 0.42969-0.53516 0.12109-0.17969 0.20703-0.37891 0.30859-0.57031 0.11328-0.21094 0.24219-0.41406 0.33594-0.64062 0.097657-0.23438 0.15625-0.48438 0.22656-0.73047 0.058594-0.19531 0.13672-0.38672 0.17578-0.58984 0.074219-0.375 0.10156-0.76172 0.11719-1.1484 0.003906-0.085938 0.027344-0.16406 0.027344-0.25391l0.003906-0.027343v-0.027344-15.277c10.426-1.3164 21.09-1.3164 31.512 0v15.277 0.027344 0.019531c0 0.085937 0.023438 0.16797 0.027344 0.25391 0.011719 0.38672 0.039063 0.77344 0.11719 1.1484 0.039062 0.20313 0.11719 0.39063 0.17578 0.58594 0.070313 0.24609 0.12891 0.49609 0.22656 0.73438 0.09375 0.22266 0.21875 0.42578 0.33203 0.63672 0.10156 0.19141 0.19141 0.39062 0.3125 0.57422 0.12891 0.19141 0.28516 0.35938 0.42969 0.53516 0.14453 0.17969 0.27734 0.36719 0.4375 0.53125 0.15234 0.15234 0.32812 0.27734 0.49219 0.41797 0.18359 0.15625 0.35938 0.32422 0.55859 0.46094 0.20312 0.14062 0.42969 0.24219 0.64844 0.36328 0.1875 0.10156 0.35938 0.21875 0.55859 0.30469 0.33594 0.14453 0.69531 0.24219 1.0547 0.33594 0.097656 0.023438 0.1875 0.070313 0.28516 0.089844 0.011719 0.003906 0.019532 0.003906 0.03125 0.007813h0.003907c12.441 2.6289 24.141 7.4805 34.773 14.426 0.007813 0.003906 0.011719 0.007812 0.019532 0.011719 0.003906 0.003906 0.007812 0.003906 0.011718 0.007812 0.35547 0.23047 0.72266 0.41797 1.0977 0.57812 0.11328 0.046875 0.22656 0.085937 0.34375 0.12891 0.29688 0.10938 0.59375 0.19922 0.89453 0.26562 0.10938 0.023438 0.21875 0.050782 0.32812 0.070313 0.40625 0.070312 0.81641 0.11719 1.2227 0.11719s0.8125-0.046875 1.2109-0.11719c0.09375-0.015625 0.1875-0.03125 0.27734-0.050781 0.38672-0.082032 0.76562-0.19141 1.1328-0.33594 0.066406-0.027344 0.12891-0.058594 0.19531-0.089844 0.33594-0.14453 0.66016-0.31641 0.97656-0.51172 0.0625-0.039063 0.125-0.070313 0.18359-0.11328 0.34766-0.23438 0.67187-0.5 0.97656-0.79688 0.027344-0.027343 0.058594-0.042969 0.085938-0.070312l10.848-10.848c8.3516 6.457 15.82 13.918 22.289 22.277l-10.828 10.82-0.027343 0.027343c-0.019532 0.019532-0.035157 0.046876-0.054688 0.070313-0.3125 0.32031-0.59375 0.66016-0.83594 1.0234-0.11719 0.17969-0.19922 0.37109-0.30078 0.55469-0.11719 0.21875-0.25391 0.42969-0.34766 0.66016-0.097656 0.23828-0.15625 0.48438-0.22656 0.72656-0.058593 0.19531-0.13281 0.38672-0.17578 0.58594-0.046875 0.23438-0.054687 0.47266-0.078125 0.71094-0.023437 0.21875-0.0625 0.43359-0.0625 0.65625 0 0.21875 0.035156 0.4375 0.054688 0.65625 0.019531 0.23828 0.023437 0.47656 0.066406 0.71094 0.046875 0.24609 0.13672 0.48438 0.20703 0.72656 0.058594 0.19922 0.097657 0.40234 0.17578 0.59766 0.14453 0.36719 0.33984 0.71875 0.55078 1.0586 0.039062 0.0625 0.058594 0.12891 0.10156 0.19141 0.003906 0.003906 0.003906 0.007812 0.007813 0.015625 0 0.003906 0.003906 0.003906 0.003906 0.007813 6.9492 10.633 11.805 22.336 14.43 34.781v0.003906c0.003907 0.011718 0.003907 0.019531 0.007813 0.03125 0.09375 0.4375 0.22656 0.85547 0.39062 1.2539 0.046875 0.11328 0.11328 0.21484 0.16406 0.32422 0.13672 0.28906 0.28125 0.57031 0.45313 0.83594 0.082031 0.125 0.17578 0.23438 0.26562 0.35156 0.17188 0.23047 0.34766 0.45312 0.54297 0.66016 0.11328 0.11719 0.23438 0.22656 0.35547 0.33594 0.19531 0.17969 0.39844 0.34766 0.61328 0.50781 0.14062 0.10156 0.28516 0.19922 0.43359 0.29297 0.22266 0.13672 0.44922 0.25781 0.6875 0.37109 0.15625 0.074218 0.30859 0.14844 0.46875 0.21484 0.27344 0.10547 0.55469 0.1875 0.83984 0.26172 0.13672 0.035156 0.26953 0.082031 0.40625 0.10547 0.4375 0.085937 0.88281 0.13672 1.3359 0.13672h0.015625 15.316c0.66016 5.2188 1.0039 10.496 1.0039 15.758s-0.34375 10.539-1.0039 15.758h-15.285-0.011719-0.027343c-0.12109 0-0.23438 0.03125-0.35547 0.035157-0.35156 0.019531-0.69922 0.035156-1.0391 0.10547-0.22656 0.046874-0.4375 0.12891-0.65625 0.19531-0.22266 0.066406-0.44922 0.11719-0.66406 0.20703-0.23047 0.097657-0.44141 0.22656-0.66016 0.34766-0.18359 0.10156-0.37891 0.18359-0.55078 0.30078-0.19141 0.125-0.35547 0.28125-0.53125 0.42188-0.17969 0.14453-0.37109 0.27734-0.53516 0.44141-0.14844 0.14453-0.26953 0.31641-0.40234 0.47266-0.16406 0.19141-0.33594 0.37109-0.47656 0.57812-0.13672 0.19531-0.23438 0.41406-0.34766 0.625-0.10547 0.19531-0.22656 0.375-0.31641 0.58203-0.14453 0.33203-0.24219 0.6875-0.33203 1.0469-0.027343 0.10156-0.070312 0.19141-0.09375 0.29297-0.003906 0.011719-0.003906 0.019532-0.007812 0.03125v0.003906c-2.6289 12.445-7.4844 24.145-14.43 34.777-0.003906 0.003906-0.003906 0.011719-0.007812 0.015625 0 0.003907-0.003907 0.003907-0.003907 0.007813-0.027343 0.039062-0.039062 0.082031-0.0625 0.12109-0.23047 0.36328-0.42969 0.74219-0.58594 1.1328-0.078125 0.19141-0.11328 0.39062-0.17188 0.58594-0.074219 0.24609-0.16406 0.48828-0.21094 0.73828-0.046874 0.23828-0.046874 0.48047-0.070312 0.72266-0.019531 0.21484-0.054688 0.42969-0.054688 0.64453 0 0.22656 0.042969 0.44922 0.066407 0.67188 0.023437 0.23047 0.03125 0.46484 0.078125 0.69141 0.042968 0.20703 0.12109 0.40234 0.17969 0.60547 0.070313 0.23828 0.125 0.47656 0.22266 0.71094 0.09375 0.23047 0.23047 0.44141 0.34766 0.66016 0.10156 0.18359 0.17969 0.37891 0.30078 0.55469 0.22266 0.33594 0.49219 0.64844 0.77734 0.94922 0.042969 0.046875 0.074219 0.097656 0.11719 0.14453l0.007813 0.007812 0.015625 0.015625 10.832 10.824c-6.4805 8.3555-13.945 15.816-22.297 22.273z"/>
  <path d="m491.48 117.28c-45.18 0-81.934 36.758-81.934 81.934 0 45.18 36.758 81.934 81.934 81.934 45.18 0 81.934-36.758 81.934-81.934 0-45.176-36.754-81.934-81.934-81.934zm0 149.63c-37.324 0-67.691-30.367-67.691-67.691 0-37.324 30.367-67.691 67.691-67.691 37.324 0 67.691 30.367 67.691 67.691 0 37.324-30.367 67.691-67.691 67.691z"/>
  <use x="70" y="644" xlink:href="#x"/>
  <use x="90.550781" y="644" xlink:href="#c"/>
  <use x="104.359375" y="644" xlink:href="#a"/>
  <use x="123.347656" y="644" xlink:href="#k"/>
  <use x="142.242188" y="644" xlink:href="#b"/>
  <use x="155.628906" y="644" xlink:href="#a"/>
  <use x="174.617188" y="644" xlink:href="#j"/>
  <use x="204.410156" y="644" xlink:href="#i"/>
  <use x="224.453125" y="644" xlink:href="#h"/>
  <use x="252.453125" y="644" xlink:href="#e"/>
  <use x="262.867188" y="644" xlink:href="#g"/>
  <use x="286.304688" y="644" xlink:href="#w"/>
  <use x="309.546875" y="644" xlink:href="#v"/>
  <use x="331.105469" y="644" xlink:href="#f"/>
  <use x="352.773438" y="644" xlink:href="#u"/>
  <use x="383.660156" y="644" xlink:href="#f"/>
  <use x="405.328125" y="644" xlink:href="#t"/>
  <use x="424.429688" y="644" xlink:href="#e"/>
  <use x="70" y="672" xlink:href="#s"/>
  <use x="82.183594" y="672" xlink:href="#c"/>
  <use x="95.992188" y="672" xlink:href="#d"/>
  <use x="115.226562" y="672" xlink:href="#r"/>
  <use x="154.152344" y="672" xlink:href="#b"/>
  <use x="167.535156" y="672" xlink:href="#q"/>
  <use x="187.46875" y="672" xlink:href="#a"/>
  <use x="216.207031" y="672" xlink:href="#g"/>
  <use x="239.640625" y="672" xlink:href="#d"/>
  <use x="258.878906" y="672" xlink:href="#p"/>
  <use x="278.8125" y="672" xlink:href="#o"/>
  <use x="308.492188" y="672" xlink:href="#n"/>
  <use x="329.015625" y="672" xlink:href="#c"/>
  <use x="342.820312" y="672" xlink:href="#d"/>
  <use x="362.058594" y="672" xlink:href="#m"/>
  <use x="371.65625" y="672" xlink:href="#a"/>
  <use x="390.648438" y="672" xlink:href="#l"/>
  <use x="407.242188" y="672" xlink:href="#b"/>
 </g>
</svg>
