<?xml version="1.0" encoding="UTF-8"?>
<svg width="700pt" height="700pt" version="1.1" viewBox="0 0 700 700" xmlns="http://www.w3.org/2000/svg" xmlns:xlink="http://www.w3.org/1999/xlink">
 <defs>
  <symbol id="e" overflow="visible">
   <path d="m29.312-1.75c-1.5117 0.78125-3.0898 1.3711-4.7344 1.7656-1.6367 0.40625-3.3398 0.60938-5.1094 0.60938-5.3125 0-9.5273-1.4844-12.641-4.4531-3.1055-2.9688-4.6562-7-4.6562-12.094s1.5508-9.125 4.6562-12.094c3.1133-2.9688 7.3281-4.4531 12.641-4.4531 1.7695 0 3.4727 0.19922 5.1094 0.59375 1.6445 0.39844 3.2227 0.99219 4.7344 1.7812v6.5938c-1.5312-1.0391-3.0391-1.8008-4.5156-2.2812-1.4805-0.48828-3.0391-0.73438-4.6719-0.73438-2.9375 0-5.2461 0.94531-6.9219 2.8281-1.6797 1.875-2.5156 4.4648-2.5156 7.7656 0 3.293 0.83594 5.8828 2.5156 7.7656 1.6758 1.875 3.9844 2.8125 6.9219 2.8125 1.6328 0 3.1914-0.23828 4.6719-0.71875 1.4766-0.48828 2.9844-1.2539 4.5156-2.2969z"/>
  </symbol>
  <symbol id="j" overflow="visible">
   <path d="m21.453-17.406c-0.67969-0.3125-1.3516-0.53906-2.0156-0.6875-0.65625-0.15625-1.3203-0.23438-1.9844-0.23438-1.9688 0-3.4844 0.63281-4.5469 1.8906-1.0547 1.2617-1.5781 3.0703-1.5781 5.4219v11.016h-7.6562v-23.922h7.6562v3.9219c0.97656-1.5625 2.1016-2.7031 3.375-3.4219 1.2812-0.71875 2.8125-1.0781 4.5938-1.0781 0.25 0 0.52344 0.011719 0.82812 0.03125 0.30078 0.023438 0.73438 0.070312 1.2969 0.14062z"/>
  </symbol>
  <symbol id="c" overflow="visible">
   <path d="m27.562-12.031v2.1875h-17.891c0.1875 1.793 0.83203 3.1367 1.9375 4.0312 1.1133 0.89844 2.6719 1.3438 4.6719 1.3438 1.6016 0 3.25-0.23438 4.9375-0.70312 1.6875-0.47656 3.4219-1.2031 5.2031-2.1719v5.8906c-1.8047 0.6875-3.6094 1.2031-5.4219 1.5469-1.8125 0.35156-3.6211 0.53125-5.4219 0.53125-4.3359 0-7.7031-1.0977-10.109-3.2969-2.3984-2.207-3.5938-5.2969-3.5938-9.2656 0-3.9062 1.1758-6.9727 3.5312-9.2031 2.3633-2.2383 5.6094-3.3594 9.7344-3.3594 3.7578 0 6.7695 1.1367 9.0312 3.4062 2.2578 2.2617 3.3906 5.2812 3.3906 9.0625zm-7.8594-2.5312c0-1.457-0.42969-2.6289-1.2812-3.5156-0.84375-0.89453-1.9492-1.3438-3.3125-1.3438-1.4922 0-2.6992 0.41797-3.625 1.25-0.91797 0.83594-1.4922 2.0391-1.7188 3.6094z"/>
  </symbol>
  <symbol id="a" overflow="visible">
   <path d="m14.391-10.766c-1.5938 0-2.793 0.27344-3.5938 0.8125-0.80469 0.54297-1.2031 1.3398-1.2031 2.3906 0 0.96875 0.32031 1.7305 0.96875 2.2812 0.64453 0.54297 1.5469 0.8125 2.7031 0.8125 1.4375 0 2.6445-0.51562 3.625-1.5469 0.98828-1.0312 1.4844-2.3203 1.4844-3.875v-0.875zm11.688-2.8906v13.656h-7.7031v-3.5469c-1.0312 1.4492-2.1875 2.5078-3.4688 3.1719s-2.8398 1-4.6719 1c-2.4805 0-4.4961-0.72266-6.0469-2.1719-1.543-1.4453-2.3125-3.3203-2.3125-5.625 0-2.8125 0.96094-4.8672 2.8906-6.1719 1.9375-1.3125 4.9688-1.9688 9.0938-1.9688h4.5156v-0.60938c0-1.207-0.48047-2.0938-1.4375-2.6562-0.94922-0.5625-2.4375-0.84375-4.4688-0.84375-1.6367 0-3.1562 0.16797-4.5625 0.5-1.4062 0.32422-2.7188 0.8125-3.9375 1.4688v-5.8281c1.6445-0.40625 3.2891-0.70703 4.9375-0.90625 1.6562-0.20703 3.3047-0.3125 4.9531-0.3125 4.3203 0 7.4375 0.85547 9.3438 2.5625 1.9141 1.6992 2.875 4.4609 2.875 8.2812z"/>
  </symbol>
  <symbol id="b" overflow="visible">
   <path d="m12.031-30.719v6.7969h7.875v5.4688h-7.875v10.141c0 1.1172 0.21875 1.8711 0.65625 2.2656 0.4375 0.38672 1.3125 0.57812 2.625 0.57812h3.9375v5.4688h-6.5625c-3.0234 0-5.1641-0.62891-6.4219-1.8906-1.2617-1.2578-1.8906-3.3984-1.8906-6.4219v-10.141h-3.7969v-5.4688h3.7969v-6.7969z"/>
  </symbol>
  <symbol id="i" overflow="visible">
   <path d="m19.953-20.422v-12.812h7.6875v33.234h-7.6875v-3.4531c-1.0547 1.4062-2.2148 2.4375-3.4844 3.0938-1.2734 0.65625-2.7422 0.98438-4.4062 0.98438-2.9492 0-5.3711-1.1719-7.2656-3.5156-1.8867-2.3438-2.8281-5.3594-2.8281-9.0469s0.94141-6.7031 2.8281-9.0469c1.8945-2.3438 4.3164-3.5156 7.2656-3.5156 1.6562 0 3.1172 0.33594 4.3906 1 1.2812 0.65625 2.4453 1.6836 3.5 3.0781zm-5.0469 15.484c1.6445 0 2.8945-0.59766 3.75-1.7969 0.86328-1.1953 1.2969-2.9297 1.2969-5.2031 0-2.2812-0.43359-4.0195-1.2969-5.2188-0.85547-1.1953-2.1055-1.7969-3.75-1.7969-1.625 0-2.8711 0.60156-3.7344 1.7969-0.85547 1.1992-1.2812 2.9375-1.2812 5.2188 0 2.2734 0.42578 4.0078 1.2812 5.2031 0.86328 1.1992 2.1094 1.7969 3.7344 1.7969z"/>
  </symbol>
  <symbol id="h" overflow="visible">
   <path d="m16.406-4.9375c1.6328 0 2.8828-0.59766 3.75-1.7969 0.86328-1.1953 1.2969-2.9297 1.2969-5.2031 0-2.2812-0.43359-4.0195-1.2969-5.2188-0.86719-1.1953-2.1172-1.7969-3.75-1.7969-1.6367 0-2.8906 0.60547-3.7656 1.8125-0.875 1.1992-1.3125 2.9336-1.3125 5.2031 0 2.2617 0.4375 3.9961 1.3125 5.2031 0.875 1.1992 2.1289 1.7969 3.7656 1.7969zm-5.0781-15.484c1.0508-1.3945 2.2188-2.4219 3.5-3.0781 1.2812-0.66406 2.7539-1 4.4219-1 2.9453 0 5.3672 1.1719 7.2656 3.5156 1.8945 2.3438 2.8438 5.3594 2.8438 9.0469s-0.94922 6.7031-2.8438 9.0469c-1.8984 2.3438-4.3203 3.5156-7.2656 3.5156-1.668 0-3.1406-0.33594-4.4219-1s-2.4492-1.6914-3.5-3.0781v3.4531h-7.6562v-33.234h7.6562z"/>
  </symbol>
  <symbol id="g" overflow="visible">
   <path d="m0.53125-23.922h7.6562l6.4219 16.234 5.4688-16.234h7.6562l-10.062 26.188c-1.0117 2.6641-2.1953 4.5234-3.5469 5.5781-1.3438 1.0625-3.1211 1.5938-5.3281 1.5938h-4.4219v-5.0156h2.3906c1.3008 0 2.2422-0.21094 2.8281-0.625 0.59375-0.40625 1.0547-1.1484 1.3906-2.2188l0.20312-0.65625z"/>
  </symbol>
  <symbol id="f" overflow="visible">
   <path d="m27.734-14.562v14.562h-7.7031v-11.109c0-2.0938-0.046875-3.5312-0.14062-4.3125-0.085937-0.78125-0.24219-1.3594-0.46875-1.7344-0.30469-0.5-0.71094-0.88281-1.2188-1.1562-0.51172-0.28125-1.0938-0.42188-1.75-0.42188-1.5938 0-2.8516 0.61719-3.7656 1.8438-0.90625 1.2305-1.3594 2.9375-1.3594 5.125v11.766h-7.6562v-33.234h7.6562v12.812c1.1445-1.3945 2.3633-2.4219 3.6562-3.0781 1.3008-0.66406 2.7383-1 4.3125-1 2.7578 0 4.8516 0.85156 6.2812 2.5469 1.4375 1.6875 2.1562 4.1523 2.1562 7.3906z"/>
  </symbol>
  <symbol id="d" overflow="visible">
   <path d="m3.6719-23.922h7.6562v23.922h-7.6562zm0-9.3125h7.6562v6.2344h-7.6562z"/>
  </symbol>
  <symbol id="n" overflow="visible">
   <path d="m1.5312-23.922h7.4375l4.0156 16.484 4.0469-16.484h6.375l4.0156 16.312 4.0469-16.312h7.4375l-6.3125 23.922h-8.3438l-4.0469-16.453-4.0156 16.453h-8.3438z"/>
  </symbol>
  <symbol id="m" overflow="visible">
   <path d="m32.688-2.375c-2.0547 1-4.1836 1.75-6.3906 2.25-2.2109 0.5-4.4844 0.75-6.8281 0.75-5.3125 0-9.5273-1.4844-12.641-4.4531-3.1055-2.9688-4.6562-7-4.6562-12.094 0-5.1328 1.5781-9.1758 4.7344-12.125 3.1641-2.9453 7.5-4.4219 13-4.4219 2.125 0 4.1562 0.19922 6.0938 0.59375 1.9453 0.39844 3.7852 0.99219 5.5156 1.7812v6.5938c-1.7812-1.0078-3.5547-1.7656-5.3125-2.2656-1.7617-0.5-3.5273-0.75-5.2969-0.75-3.2734 0-5.793 0.91797-7.5625 2.75-1.7734 1.8359-2.6562 4.4492-2.6562 7.8438 0 3.375 0.85156 5.9844 2.5625 7.8281 1.707 1.8359 4.1328 2.75 7.2812 2.75 0.85156 0 1.6445-0.050781 2.375-0.15625 0.73828-0.10156 1.3984-0.26953 1.9844-0.5v-6.2031h-5.0312v-5.5h12.828z"/>
  </symbol>
  <symbol id="l" overflow="visible">
   <path d="m27.734-14.562v14.562h-7.7031v-11.156c0-2.0625-0.046875-3.4844-0.14062-4.2656-0.085937-0.78125-0.24219-1.3594-0.46875-1.7344-0.30469-0.5-0.71094-0.88281-1.2188-1.1562-0.51172-0.28125-1.0938-0.42188-1.75-0.42188-1.5938 0-2.8516 0.61719-3.7656 1.8438-0.90625 1.2305-1.3594 2.9375-1.3594 5.125v11.766h-7.6562v-23.922h7.6562v3.5c1.1445-1.3945 2.3633-2.4219 3.6562-3.0781 1.3008-0.66406 2.7383-1 4.3125-1 2.7578 0 4.8516 0.85156 6.2812 2.5469 1.4375 1.6875 2.1562 4.1523 2.1562 7.3906z"/>
  </symbol>
  <symbol id="k" overflow="visible">
   <path d="m3.6719-33.234h7.6562v18.094l8.7969-8.7812h8.8906l-11.688 10.969 12.594 12.953h-9.2656l-9.3281-9.9688v9.9688h-7.6562z"/>
  </symbol>
 </defs>
 <g>
  <path d="m446.25 463.75v-21.875h7c0.96094 0 1.75-0.78906 1.75-1.75v-66.5c0-0.96094-0.78906-1.75-1.75-1.75h-7v-21.875h-17.5v21.875h-7c-0.96094 0-1.75 0.78906-1.75 1.75v66.5c0 0.96094 0.78906 1.75 1.75 1.75h7v21.875z"/>
  <path d="m525 498.75v-21.875h7c0.96094 0 1.75-0.78906 1.75-1.75v-66.5c0-0.96094-0.78906-1.75-1.75-1.75h-7v-21.875h-17.5v21.875h-7c-0.96094 0-1.75 0.78906-1.75 1.75v66.5c0 0.96094 0.78906 1.75 1.75 1.75h7v21.875z"/>
  <path d="m315 542.5v-227.5h-227.5c0 125.65 101.85 227.5 227.5 227.5z"/>
  <path d="m586.69 188.65c-18.727 28.699-51.102 47.602-87.938 47.602-58.012 0-105-46.988-105-105 0-36.836 18.898-69.211 47.602-87.938-28.352-11.113-59.148-17.062-91.352-17.062v253.75h253.75c0-32.199-5.9492-63-17.062-91.352z"/>
  <path d="m131.25 52.5h17.5c4.832 0 8.75 4.832 8.75 8.75v166.25c0 4.832-3.918 8.75-8.75 8.75h-17.5c-4.832 0-8.75-4.832-8.75-8.75v-166.25c0-4.832 3.918-8.75 8.75-8.75z"/>
  <path d="m201.25 113.75h17.5c4.832 0 8.75 4.832 8.75 8.75v105c0 4.832-3.918 8.75-8.75 8.75h-17.5c-4.832 0-8.75-4.832-8.75-8.75v-105c0-4.832 3.918-8.75 8.75-8.75z"/>
  <path d="m271.25 157.5h17.5c4.832 0 8.75 4.832 8.75 8.75v61.25c0 4.832-3.918 8.75-8.75 8.75h-17.5c-4.832 0-8.75-4.832-8.75-8.75v-61.25c0-4.832 3.918-8.75 8.75-8.75z"/>
  <path d="m610.75 371.88h-7v-21.875h-17.5v21.875h-7c-0.96094 0-1.75 0.78906-1.75 1.75v66.5c0 0.96094 0.78906 1.75 1.75 1.75h7v21.875h17.5v-21.875h7c0.96094 0 1.75-0.78906 1.75-1.75v-66.5c0-0.96094-0.78906-1.75-1.75-1.75z"/>
  <path d="m402.5 131.25c0 53.199 43.051 96.25 96.25 96.25s96.25-43.051 96.25-96.25-43.051-96.25-96.25-96.25-96.25 43.051-96.25 96.25zm101.68 8.75h-10.938c-13.824 0-25.199-12.773-25.199-28.438 0-14.438 9.5391-26.25 21.875-28.086v-13.477h17.5v13.477c12.336 1.8359 21.875 13.648 21.875 28.086h-17.5c0-5.9492-3.5-10.938-7.6992-10.938h-10.938c-4.1133 0-7.6992 4.9883-7.6992 10.938s3.5 10.938 7.6992 10.938h10.938c13.824 0 25.199 12.773 25.199 28.438 0 14.438-9.5391 26.25-21.875 28.086v13.477h-17.5v-13.477c-12.336-1.8359-21.875-13.648-21.875-28.086h17.5c0 5.9492 3.5 10.938 7.6992 10.938h10.938c4.1133 0 7.6992-4.9883 7.6992-10.938s-3.5-10.938-7.6992-10.938z"/>
  <path d="m591.32 338.19c4.8125 0.875 9.5391-2.4492 10.148-7.2617 1.4883-11.113 2.2734-22.312 2.2734-33.426v-8.75h-253.75v253.75h8.75c45.324 0 89.25-12.336 127.57-35.875 4.1992-2.5391 5.3359-8.1367 2.625-12.25-2.625-3.9375-7.875-4.9883-11.898-2.5391-33.164 20.211-70.699 31.5-109.55 32.988v-218.57h218.57c-0.26172 7.3516-0.875 14.699-1.9258 22.051-0.61328 4.7266 2.4492 9.1016 7.0859 9.8867z"/>
  <path d="m341.25 26.25h-8.75c-52.062 0-103.25 16.801-144.99 47.426-3.9375 2.8867-4.6367 8.5742-1.5742 12.426 2.9766 3.7617 8.2266 4.2891 12.074 1.4883 36.75-27.039 79.887-42.086 125.65-43.75l0.003906 218.66h-218.49c0.52344-14.262 2.4492-28.523 5.6016-42.438 1.0508-4.6367-1.5742-9.2734-6.2109-10.5-4.7266-1.3125-9.7109 1.5742-10.852 6.3867-4.1992 18.113-6.3008 36.664-6.3008 55.301v8.75h253.84z"/>
  <use x="70" y="691.25" xlink:href="#e"/>
  <use x="102.109375" y="691.25" xlink:href="#j"/>
  <use x="123.683594" y="691.25" xlink:href="#c"/>
  <use x="153.355469" y="691.25" xlink:href="#a"/>
  <use x="182.878906" y="691.25" xlink:href="#b"/>
  <use x="203.792969" y="691.25" xlink:href="#c"/>
  <use x="233.464844" y="691.25" xlink:href="#i"/>
  <use x="280.011719" y="691.25" xlink:href="#h"/>
  <use x="311.328125" y="691.25" xlink:href="#g"/>
  <use x="355.078125" y="691.25" xlink:href="#e"/>
  <use x="387.1875" y="691.25" xlink:href="#f"/>
  <use x="418.332031" y="691.25" xlink:href="#a"/>
  <use x="447.855469" y="691.25" xlink:href="#d"/>
  <use x="462.851562" y="691.25" xlink:href="#n"/>
  <use x="503.269531" y="691.25" xlink:href="#a"/>
  <use x="532.792969" y="691.25" xlink:href="#b"/>
  <use x="568.9375" y="691.25" xlink:href="#m"/>
  <use x="604.847656" y="691.25" xlink:href="#d"/>
  <use x="619.84375" y="691.25" xlink:href="#l"/>
  <use x="650.992188" y="691.25" xlink:href="#k"/>
  <use x="680.085937" y="691.25" xlink:href="#a"/>
 </g>
</svg>
